<svg width="498" height="538" viewBox="0 0 498 538" fill="none" xmlns="http://www.w3.org/2000/svg">
<path fill-rule="evenodd" clip-rule="evenodd" d="M242.718 160.119C236.236 162.609 157.919 210.784 154 214.5C147.19 220.955 150.054 312.602 156.266 323.372C165.28 339 240.186 375.772 249 378C255 385 249.996 381.217 325 336.751C349.805 322.045 348 327.492 348 267.348C348 237.62 349 215.5 346.5 214C353 208 329.386 200.682 303.5 185.99C253.273 157.482 251.522 156.737 242.718 160.119Z" fill="#D6F0FF"/>
<path fill-rule="evenodd" clip-rule="evenodd" d="M108 192C107.224 195.079 106.386 221.381 106.401 272.193C106.428 362.158 103.51 352.077 130 367C152.522 379.688 172.621 391.972 205 410C220.121 418.972 231.784 424.746 239.379 428C246.209 430.927 250.879 431 252.379 430C253 429.5 252.379 405.5 252.379 404.701C252.379 378.176 253.535 378.182 249.5 377.5C244.689 376.687 241.486 375.61 202.879 353.712C145.898 321.39 153.192 334.182 153.579 267.251L153.879 215.342L145.879 210.498C110.911 189.326 109.491 186.079 108 192Z" fill="#041619"/>
<path fill-rule="evenodd" clip-rule="evenodd" d="M14.909 139.69C11.008 149.775 10.959 151.605 11.234 276.262C11.568 427.059 5.88002 407.786 58.5 436.438C62.35 438.535 76.75 446.644 90.5 454.458C104.25 462.272 129.45 476.544 146.5 486.174C236.936 537.254 233.539 535.525 245.75 536.692L252.5 537.289V484.258C252.5 478.238 259.335 438.308 253.5 430.531C252.931 429.773 249.776 430.645 249 430.531C242.267 429.544 237.957 428.272 205 409.528C172.938 391.293 152.522 379.727 130 367.039C103.506 352.114 106.52 362.19 106.5 272C107.972 201 106.739 191.237 109.5 189.5C110.116 189.112 30.445 144.342 16.748 137.268C16.335 137.054 15.507 138.144 14.909 139.69Z" fill="#083042"/>
<path fill-rule="evenodd" clip-rule="evenodd" d="M238.612 107C235.862 108.02 226.123 113.321 216.969 118.778C207.816 124.235 182.044 139.488 159.699 152.672C120.146 176.01 114.962 180.48 109.5 187C106.888 190.117 108.388 188.091 121.5 195.335C128 200 132 202.5 138 205.5C144.631 209.685 153.612 216.062 153.612 215.2C155.612 213.2 161.612 209.7 175.112 200.7C186.064 194.074 202.926 184.544 225.612 169.7C250.112 155.7 249.888 156.594 276 170.5C282.875 174.384 299.862 183.331 313.612 191.108C329.092 199.863 341.276 209.167 343.5 211.5C347.091 215.268 345.795 212.783 353.704 207.435C358.053 204.494 368.137 198.203 376.112 193.455C384.087 188.708 390.953 184.462 391.37 184.02C391.787 183.578 391.813 183.45 391.428 183.734C391.042 184.019 388.451 182.037 385.67 179.33C382.424 176.172 374.881 171.215 364.612 165.492C349.695 157.179 284.801 120.446 273.612 113.982C258.436 105.215 248.67 103.267 238.612 107Z" fill="#37BF6E"/>
<path fill-rule="evenodd" clip-rule="evenodd" d="M229.5 2.49998C224.072 4.21698 221.81 5.43598 196.5 20.298C184.4 27.404 173.6 33.732 172.5 34.362C171.4 34.992 154.975 44.688 136 55.909C98.5 78.085 71.186 94.204 47 108.431C27.81 119.72 12.988 133.726 16.665 137.096C17.457 137.823 42.511 151.977 72 168.357C79.425 172.482 90.416 178.611 96.425 181.979C109.298 189.193 108.022 191.413 111 187C114.218 182.231 117.639 177.663 162 151.521C183.175 139.042 208.137 124.319 217.471 118.802C244.709 102.704 250.683 102.279 272.5 114.883C283.689 121.347 348.583 158.08 363.5 166.393C373.729 172.094 384.282 178.369 387.5 181.5C392.533 186.397 391 186 400.033 178.768C405.79 175.283 426.137 163.109 445.25 151.715C464.363 140.32 482 131.14 482 130.5C482 127.534 465.127 114.392 454.5 108.445C448.45 105.059 431.8 95.669 417.5 87.577C403.2 79.485 375.075 63.638 355 52.36C334.925 41.083 307.75 25.746 294.61 18.277C263.684 0.699984 247.552 -3.20902 229.5 2.49998Z" fill="#3DDC84"/>
<path fill-rule="evenodd" clip-rule="evenodd" d="M378.5 191.572C350.628 208.218 348.5 211.5 346 213.5C347.737 215.236 349.674 308.097 348.008 315.727C345.848 325.62 343.677 327.196 286 360.749C278.025 365.388 268.881 370.765 265.68 372.697C262.479 374.629 255.096 377.719 253 378C251.5 379.5 253 378 252.352 456.866C252.431 511.125 252.555 519.713 252.742 483.819C253.017 431.138 253.017 431.138 258.402 430.02C263.976 428.863 267.221 427.056 323 394.034C338.125 385.079 357.948 373.35 367.051 367.968C397.881 349.741 395.5 358.19 395.5 267C396.5 175.5 397 176.5 378.5 191.572ZM153.463 270.5C153.463 297.45 153.592 308.331 153.749 294.681C153.907 281.03 153.906 258.98 153.749 245.681C153.592 232.381 153.463 243.55 153.463 270.5Z" fill="#3870B2"/>
<path fill-rule="evenodd" clip-rule="evenodd" d="M436.721 156.963C384.266 188.312 390.336 183.824 393.18 189.153C395.5 193.5 395.5 193.5 395.5 267C395.5 358.19 397.881 349.741 367.051 367.968C357.948 373.35 338.125 385.079 323 394.034C267.199 427.068 261.585 428.863 256 430.022C250.607 431.142 252.5 431.307 252.5 484.378L252.5 537.285L258.75 536.679C270.189 535.475 272.551 534.276 328 501.542C331.025 499.756 341.15 493.778 350.5 488.258C359.85 482.738 383.7 468.659 403.5 456.971C501.542 399.095 490.959 422.203 490.983 265.96C491.002 143.157 491.216 148.042 485.274 136.189C483.809 133.268 482.361 130.725 482.056 130.539C481.75 130.353 461.35 142.244 436.721 156.963ZM348.462 267.5C348.461 293.35 348.591 304.068 348.749 291.319C348.907 278.569 348.907 257.419 348.749 244.319C348.591 231.218 348.462 241.65 348.462 267.5Z" fill="#4285F4"/>
<g clip-path="url(#clip0_102_103)">
<path d="M247.295 355C261.351 355 272.746 349.045 272.746 341.7C272.746 334.355 261.351 328.4 247.295 328.4C233.239 328.4 221.845 334.355 221.845 341.7C221.845 349.045 233.239 355 247.295 355Z" fill="#4D4D4D"/>
<path d="M247.295 352.783C261.351 352.783 272.746 346.829 272.746 339.483C272.746 332.138 261.351 326.183 247.295 326.183C233.239 326.183 221.845 332.138 221.845 339.483C221.845 346.829 233.239 352.783 247.295 352.783Z" fill="#CCCCCC"/>
<path fill-rule="evenodd" clip-rule="evenodd" d="M244.463 307.243L233.134 340.297C241.202 346.432 252.53 346.432 261.456 340.297L250.127 307.243H244.463Z" fill="url(#paint0_linear_102_103)" stroke="black" stroke-width="0.911561"/>
<path d="M250.681 182C242.628 182 234.655 183.633 227.215 186.806C219.775 189.978 213.016 194.629 207.322 200.491C201.627 206.354 197.111 213.314 194.029 220.973C190.948 228.633 189.361 236.843 189.361 245.134C189.361 253.424 190.948 261.634 194.029 269.294C197.111 276.953 201.627 283.913 207.322 289.776C213.016 295.638 219.775 300.289 227.215 303.461C234.655 306.634 242.628 308.267 250.681 308.267C266.944 308.267 282.541 301.615 294.04 289.776C305.54 277.936 312 261.878 312 245.134C312 228.39 305.54 212.331 294.04 200.491C282.541 188.652 266.944 182 250.681 182ZM250.681 186.763C265.773 186.763 280.247 192.859 290.919 203.71C301.59 214.561 307.586 229.278 307.586 244.623C307.586 259.969 301.59 274.686 290.919 285.537C280.247 296.388 265.773 302.484 250.681 302.484C243.208 302.484 235.808 300.987 228.904 298.08C222 295.172 215.727 290.91 210.443 285.537C205.159 280.164 200.967 273.786 198.107 266.766C195.248 259.746 193.776 252.222 193.776 244.623C193.776 237.025 195.248 229.501 198.107 222.481C200.967 215.461 205.159 209.082 210.443 203.71C215.727 198.337 222 194.075 228.904 191.167C235.808 188.259 243.208 186.763 250.681 186.763Z" fill="#808080"/>
<path d="M247.319 182C239.267 182 231.293 183.633 223.854 186.806C216.414 189.978 209.654 194.629 203.96 200.491C198.266 206.354 193.749 213.314 190.668 220.973C187.586 228.633 186 236.843 186 245.134C186 253.424 187.586 261.634 190.668 269.294C193.749 276.953 198.266 283.913 203.96 289.776C209.654 295.638 216.414 300.289 223.854 303.461C231.293 306.634 239.267 308.267 247.319 308.267C263.582 308.267 279.179 301.615 290.679 289.776C302.178 277.936 308.639 261.878 308.639 245.134C308.639 228.39 302.178 212.331 290.679 200.491C279.179 188.652 263.582 182 247.319 182ZM247.319 186.763C262.412 186.763 276.886 192.859 287.557 203.71C298.229 214.561 304.224 229.278 304.224 244.623C304.224 259.969 298.229 274.686 287.557 285.537C276.886 296.388 262.412 302.484 247.319 302.484C239.847 302.484 232.447 300.987 225.543 298.08C218.639 295.172 212.366 290.91 207.081 285.537C201.797 280.164 197.606 273.786 194.746 266.766C191.886 259.746 190.414 252.222 190.414 244.623C190.414 237.025 191.886 229.501 194.746 222.481C197.606 215.461 201.797 209.082 207.081 203.71C212.366 198.337 218.639 194.075 225.543 191.167C232.447 188.259 239.847 186.763 247.319 186.763Z" fill="#CCCCCC"/>
<path d="M302.627 246.231C301.623 241.327 295.406 236.74 285.225 233.39C275.044 230.04 261.653 228.175 247.741 228.17C233.82 228.17 220.416 230.033 210.224 233.384C200.032 236.734 193.808 241.324 192.804 246.231H197.57C198.823 242.758 204.672 239.539 213.982 237.198C223.292 234.857 235.398 233.56 247.953 233.56C260.498 233.564 272.592 234.862 281.891 237.203C291.189 239.544 297.031 242.761 298.283 246.231H302.627Z" fill="#808080"/>
<path d="M192.804 243.822C193.808 238.919 200.024 234.332 210.205 230.982C220.386 227.631 233.778 225.767 247.689 225.762C261.61 225.762 275.014 227.625 285.206 230.975C295.398 234.326 301.622 238.916 302.627 243.822H297.86C296.607 240.35 290.758 237.131 281.448 234.79C272.138 232.449 260.032 231.152 247.477 231.152C234.932 231.156 222.838 232.454 213.54 234.795C204.241 237.136 198.399 240.353 197.147 243.822H192.804Z" fill="url(#paint1_linear_102_103)"/>
<path d="M247.569 198.801C251.478 199.645 255.134 204.87 257.805 213.428C260.475 221.986 261.961 233.242 261.965 244.936C261.965 256.637 260.48 267.904 257.81 276.471C255.139 285.038 251.48 290.27 247.569 291.115V287.108C250.337 286.055 252.903 281.138 254.769 273.313C256.635 265.487 257.669 255.311 257.669 244.758C257.666 234.213 256.631 224.047 254.765 216.231C252.899 208.415 250.335 203.505 247.569 202.452V198.801Z" fill="#808080"/>
<path d="M245.17 291.115C249.078 290.271 252.735 285.045 255.405 276.487C258.076 267.929 259.562 256.673 259.566 244.979C259.566 233.278 258.081 222.011 255.41 213.444C252.74 204.877 249.081 199.645 245.17 198.801V202.807C247.938 203.861 250.504 208.777 252.37 216.603C254.236 224.428 255.269 234.605 255.269 245.158C255.266 255.703 254.232 265.868 252.366 273.685C250.5 281.501 247.936 286.411 245.17 287.463V291.115Z" fill="url(#paint2_linear_102_103)"/>
<path fill-rule="evenodd" clip-rule="evenodd" d="M246.16 247.825H247.574V290.159H246.16V247.825Z" fill="#4D4D4D"/>
<path d="M246.867 291.429C247.257 291.429 247.574 290.955 247.574 290.371C247.574 289.786 247.257 289.312 246.867 289.312C246.476 289.312 246.16 289.786 246.16 290.371C246.16 290.955 246.476 291.429 246.867 291.429Z" fill="#4D4D4D"/>
<path d="M246.501 231.959C235.933 231.959 225.798 233.526 218.325 236.316C210.852 239.105 206.654 242.889 206.654 246.833C206.654 250.778 210.852 254.562 218.325 257.351C225.798 260.141 235.933 261.708 246.501 261.708C257.069 261.708 267.205 260.141 274.677 257.351C282.15 254.562 286.348 250.778 286.348 246.833C286.348 242.889 282.15 239.105 274.677 236.316C267.205 233.526 257.069 231.959 246.501 231.959ZM244.135 235.359L244.011 245.275H212.88C220.819 239.091 232.876 235.5 244.135 235.359ZM248.859 235.359C260.118 235.5 272.175 239.091 280.114 245.275H248.984L248.859 235.359ZM212.756 248.391H243.886L244.011 258.307C232.752 258.165 220.695 254.575 212.756 248.391ZM248.984 248.391H280.114C272.175 254.575 260.118 258.165 248.859 258.307L248.984 248.391Z" fill="#D45500" stroke="#2B1100" stroke-width="0.100104"/>
<path d="M246.501 230.259C235.933 230.259 225.798 231.826 218.325 234.616C210.852 237.405 206.654 241.189 206.654 245.134C206.654 249.078 210.852 252.862 218.325 255.651C225.798 258.441 235.933 260.008 246.501 260.008C257.069 260.008 267.205 258.441 274.677 255.651C282.15 252.862 286.348 249.078 286.348 245.134C286.348 241.189 282.15 237.405 274.677 234.616C267.205 231.826 257.069 230.259 246.501 230.259ZM244.135 233.659L244.011 243.575H212.88C220.819 237.391 232.876 233.8 244.135 233.659ZM248.859 233.659C260.118 233.8 272.175 237.391 280.114 243.575H248.984L248.859 233.659ZM212.756 246.691H243.886L244.011 256.607C232.752 256.466 220.695 252.875 212.756 246.691ZM248.984 246.691H280.114C272.175 252.875 260.118 256.466 248.859 256.607L248.984 246.691Z" fill="#FF0000" stroke="#2B1100" stroke-width="0.100104"/>
<path fill-rule="evenodd" clip-rule="evenodd" d="M246.16 198.867H247.574V243.924H246.16V198.867Z" fill="#666666"/>
<path d="M246.867 245.275C247.257 245.275 247.574 244.771 247.574 244.149C247.574 243.527 247.257 243.023 246.867 243.023C246.476 243.023 246.16 243.527 246.16 244.149C246.16 244.771 246.476 245.275 246.867 245.275Z" fill="#666666"/>
<path d="M244.573 291.115C240.59 290.271 236.863 285.045 234.141 276.487C231.419 267.929 229.904 256.673 229.9 244.979C229.9 233.278 231.413 222.011 234.136 213.444C236.858 204.877 240.587 199.645 244.573 198.801V202.807C241.752 203.861 239.137 208.777 237.235 216.603C235.333 224.428 234.279 234.605 234.279 245.158C234.282 255.703 235.337 265.868 237.239 273.685C239.14 281.501 241.754 286.411 244.573 287.463V291.115Z" fill="#CCCCCC"/>
<path d="M246.53 198.801C242.546 199.645 238.819 204.87 236.097 213.428C233.375 221.986 231.86 233.242 231.856 244.936C231.856 256.637 233.37 267.904 236.092 276.471C238.814 285.038 242.543 290.27 246.53 291.115V287.108C243.709 286.055 241.093 281.138 239.191 273.313C237.289 265.487 236.236 255.311 236.236 244.758C236.239 234.213 237.293 224.047 239.195 216.231C241.097 208.415 243.711 203.505 246.53 202.452V198.801Z" fill="#808080"/>
<path d="M302.627 245.63C301.623 250.533 295.406 255.12 285.225 258.47C275.044 261.82 261.653 263.685 247.741 263.69C233.82 263.69 220.416 261.827 210.224 258.477C200.032 255.126 193.808 250.536 192.804 245.63H197.57C198.823 249.102 204.672 252.321 213.982 254.662C223.292 257.003 235.398 258.3 247.953 258.3C260.498 258.296 272.592 256.998 281.891 254.657C291.189 252.316 297.031 249.099 298.283 245.63H302.627Z" fill="#808080"/>
<path d="M192.804 244.222C194.886 254.393 218.831 260.67 247.689 260.68C276.568 260.68 300.543 254 302.627 243.821L299.86 243.621C297.264 250.814 273.485 258.495 247.477 258.495C221.489 258.487 197.942 251.81 195.348 244.623L192.804 244.222Z" fill="#CCCCCC"/>
<path d="M302.292 243.859H306.251" stroke="black" stroke-width="3.2"/>
</g>
<defs>
<linearGradient id="paint0_linear_102_103" x1="258.195" y1="321.642" x2="236.652" y2="314.258" gradientUnits="userSpaceOnUse">
<stop stop-color="#505050"/>
<stop offset="1" stop-color="white"/>
</linearGradient>
<linearGradient id="paint1_linear_102_103" x1="301.503" y1="242.618" x2="191.334" y2="242.618" gradientUnits="userSpaceOnUse">
<stop stop-color="#808080"/>
<stop offset="1" stop-color="#808080" stop-opacity="0"/>
</linearGradient>
<linearGradient id="paint2_linear_102_103" x1="246.13" y1="199.745" x2="246.13" y2="292.35" gradientUnits="userSpaceOnUse">
<stop stop-color="#808080"/>
<stop offset="1" stop-color="#808080" stop-opacity="0"/>
</linearGradient>
<clipPath id="clip0_102_103">
<rect width="126" height="173" fill="white" transform="translate(186 182)"/>
</clipPath>
</defs>
</svg>
